# xmcd
#
# Track frame offsets: 
#        150
#        17273
#        32336
#        48542
#
# Disc length: 826 seconds
#
# Revision: 0
# Processed by: cddbd v1.5.2PL0 Copyright (c) Steve Scherf et al.
# Submitted via: ExactAudioCopy v1.0b3
#
DISCID=20033804
DTITLE=The Ely Plains - The Ely Plains EP
DYEAR=2009
DGENRE=Americana
TTITLE0=Old Souls
TTITLE1=The Engineer
TTITLE2=It's Legend
TTITLE3=Too Unreal
EXTD=
EXTT0=
EXTT1=
EXTT2=
EXTT3=
PLAYORDER=
